<svg width="40" height="40" viewBox="0 0 40 40" fill="none" xmlns="http://www.w3.org/2000/svg">
<circle cx="20" cy="20" r="20" fill="white"/>
<path d="M18.4722 19.0654C19.9076 18.3077 20.6569 17.1612 20.6569 15.3766C20.6569 11.8574 18.2826 11 15.5427 11H8V28.666H15.7549C18.6618 28.666 21.3927 27.1257 21.3927 23.5367C21.3927 21.3185 20.4403 19.6785 18.4722 19.0654ZM11.5163 14.0158H14.816C16.0844 14.0158 17.2264 14.4096 17.2264 16.0346C17.2264 17.535 16.3372 18.1382 15.0823 18.1382H11.5163V14.0158ZM15.2764 25.6652H11.5163V20.8001H15.3486C16.8969 20.8001 17.8764 21.5129 17.8764 23.3223C17.8764 25.1069 16.7073 25.6652 15.2764 25.6652ZM31.4587 13.6669H24.9722V11.9272H31.4587V13.6669ZM34 22.455C34 18.6716 31.9958 15.5162 28.3622 15.5162C24.8323 15.5162 22.4354 18.4472 22.4354 22.2855C22.4354 26.2683 24.7059 29 28.3622 29C31.1292 29 32.9212 27.6242 33.7833 24.6981H30.9757C30.6733 25.7898 29.4274 26.368 28.4615 26.368C26.5972 26.368 25.6177 25.1617 25.6177 23.113H33.9729C33.9865 22.9036 34 22.6793 34 22.455ZM25.6222 20.8998C25.726 19.2199 26.7372 18.1681 28.2628 18.1681C29.8608 18.1681 30.6642 19.2049 30.7997 20.8998H25.6222Z" fill="#9E981C"/>
</svg>
