<svg width="40" height="40" viewBox="0 0 40 40" fill="none" xmlns="http://www.w3.org/2000/svg">
<circle cx="20" cy="20" r="20" fill="white"/>
<path d="M28.95 16.324C28.9399 15.5666 28.7981 14.8168 28.531 14.108C28.2993 13.5102 27.9455 12.9672 27.4922 12.5138C27.0388 12.0605 26.4958 11.7067 25.898 11.475C25.1983 11.2124 24.4592 11.0703 23.712 11.055C22.75 11.012 22.445 11 20.003 11C17.561 11 17.248 11 16.293 11.055C15.5462 11.0705 14.8073 11.2125 14.108 11.475C13.5101 11.7065 12.967 12.0602 12.5136 12.5136C12.0602 12.967 11.7065 13.5101 11.475 14.108C11.2118 14.8071 11.0701 15.5461 11.056 16.293C11.013 17.256 11 17.561 11 20.003C11 22.445 11 22.757 11.056 23.713C11.071 24.461 11.212 25.199 11.475 25.9C11.7069 26.4978 12.0609 27.0406 12.5144 27.4938C12.968 27.947 13.5111 28.3006 14.109 28.532C14.8064 28.8052 15.5454 28.9574 16.294 28.982C17.257 29.025 17.562 29.038 20.004 29.038C22.446 29.038 22.759 29.038 23.714 28.982C24.4612 28.9673 25.2004 28.8256 25.9 28.563C26.4977 28.3311 27.0405 27.9772 27.4938 27.5238C27.9472 27.0705 28.3011 26.5277 28.533 25.93C28.796 25.23 28.937 24.492 28.952 23.743C28.995 22.781 29.008 22.476 29.008 20.033C29.006 17.591 29.006 17.281 28.95 16.324ZM19.997 24.621C17.443 24.621 15.374 22.552 15.374 19.998C15.374 17.444 17.443 15.375 19.997 15.375C21.2231 15.375 22.399 15.8621 23.266 16.729C24.1329 17.596 24.62 18.7719 24.62 19.998C24.62 21.2241 24.1329 22.4 23.266 23.267C22.399 24.1339 21.2231 24.621 19.997 24.621ZM24.804 16.282C24.6624 16.2821 24.5222 16.2543 24.3913 16.2002C24.2605 16.1461 24.1416 16.0667 24.0414 15.9666C23.9413 15.8664 23.8619 15.7475 23.8078 15.6167C23.7537 15.4858 23.7259 15.3456 23.726 15.204C23.726 15.0625 23.7539 14.9224 23.808 14.7917C23.8622 14.6609 23.9415 14.5421 24.0416 14.4421C24.1416 14.342 24.2604 14.2627 24.3912 14.2085C24.5219 14.1544 24.662 14.1265 24.8035 14.1265C24.945 14.1265 25.0851 14.1544 25.2158 14.2085C25.3466 14.2627 25.4654 14.342 25.5654 14.4421C25.6655 14.5421 25.7448 14.6609 25.799 14.7917C25.8531 14.9224 25.881 15.0625 25.881 15.204C25.881 15.8 25.399 16.282 24.804 16.282Z" fill="#9E981C"/>
<path d="M19.9969 23.0011C21.6554 23.0011 22.9999 21.6566 22.9999 19.9981C22.9999 18.3396 21.6554 16.9951 19.9969 16.9951C18.3384 16.9951 16.9939 18.3396 16.9939 19.9981C16.9939 21.6566 18.3384 23.0011 19.9969 23.0011Z" fill="#9E981C"/>
</svg>
