<svg width="40" height="40" viewBox="0 0 40 40" fill="none" xmlns="http://www.w3.org/2000/svg">
<circle cx="20" cy="20" r="20" fill="white"/>
<path d="M14.8057 28H11.2811V15.9824H14.8057V28ZM13.0413 14.3431C11.9144 14.3431 11 13.3544 11 12.1613C11 11.5881 11.2151 11.0383 11.5979 10.633C11.9807 10.2277 12.4999 10 13.0413 10C13.5827 10 14.1019 10.2277 14.4847 10.633C14.8675 11.0383 15.0826 11.5881 15.0826 12.1613C15.0826 13.3544 14.1682 14.3431 13.0413 14.3431ZM27.997 28H24.4803V22.15C24.4803 20.7556 24.4536 18.9679 22.6478 18.9679C20.8154 18.9679 20.5343 20.4824 20.5343 22.0497V28H17.0134V15.9824H20.3934V17.6217H20.4426C20.9132 16.6774 22.0625 15.6809 23.7772 15.6809C27.3443 15.6809 28 18.1681 28 21.3985V28H27.997Z" fill="#9E981C"/>
</svg>
