<svg width="83" height="54" viewBox="0 0 83 54" fill="none" xmlns="http://www.w3.org/2000/svg">
<path d="M26.24 44.216C26.24 45.976 25.792 47.512 24.896 48.824C24 50.136 22.784 51.16 21.248 51.896C19.744 52.632 18.08 53 16.256 53H0.08V18.92H17.024C18.624 18.92 20 19.352 21.152 20.216C22.336 21.048 23.232 22.136 23.84 23.48C24.48 24.792 24.8 26.168 24.8 27.608C24.8 29.272 24.368 30.84 23.504 32.312C22.672 33.752 21.472 34.824 19.904 35.528C21.856 36.104 23.392 37.176 24.512 38.744C25.664 40.28 26.24 42.104 26.24 44.216ZM4.4 22.664V34.04H15.248C16.752 34.04 18 33.496 18.992 32.408C20.016 31.288 20.528 29.944 20.528 28.376C20.528 26.776 20.048 25.432 19.088 24.344C18.16 23.224 16.976 22.664 15.536 22.664H4.4ZM21.872 43.448C21.872 42.392 21.632 41.416 21.152 40.52C20.704 39.624 20.08 38.904 19.28 38.36C18.512 37.816 17.616 37.544 16.592 37.544H4.4V49.256H16.256C17.312 49.256 18.256 48.984 19.088 48.44C19.952 47.896 20.624 47.192 21.104 46.328C21.616 45.432 21.872 44.472 21.872 43.448ZM60.3871 53L46.4911 33.776L38.4991 41.264V53H33.6031V0.439999H38.4991V36.008L59.7391 15.56H65.1391L49.8031 30.896L65.7151 53H60.3871ZM75.3828 53.36C73.8228 53.36 72.3588 53.108 70.9908 52.604C69.6228 52.076 68.4468 51.296 67.4628 50.264L68.6868 48.032C69.7668 49.04 70.8468 49.76 71.9268 50.192C73.0068 50.624 74.1108 50.84 75.2388 50.84C76.5348 50.84 77.5908 50.6 78.4068 50.12C79.2228 49.616 79.6308 48.884 79.6308 47.924C79.6308 47.228 79.4148 46.712 78.9828 46.376C78.5748 46.04 77.9868 45.764 77.2188 45.548C76.4508 45.308 75.5388 45.044 74.4828 44.756C72.5388 44.204 71.0508 43.556 70.0188 42.812C69.0108 42.044 68.5068 40.928 68.5068 39.464C68.5068 37.688 69.1788 36.32 70.5228 35.36C71.8908 34.376 73.6308 33.884 75.7428 33.884C78.5748 33.884 80.8068 34.736 82.4388 36.44L80.9988 38.636C79.5348 37.124 77.7228 36.368 75.5628 36.368C74.9148 36.368 74.2788 36.452 73.6548 36.62C73.0308 36.764 72.5148 37.04 72.1068 37.448C71.6988 37.832 71.4948 38.384 71.4948 39.104C71.4948 39.992 71.8548 40.628 72.5748 41.012C73.2948 41.396 74.3508 41.792 75.7428 42.2C77.1588 42.608 78.3828 43.016 79.4148 43.424C80.4708 43.832 81.2868 44.36 81.8628 45.008C82.4388 45.656 82.7268 46.556 82.7268 47.708C82.7268 49.484 82.0548 50.876 80.7108 51.884C79.3668 52.868 77.5908 53.36 75.3828 53.36Z" fill="#9E981C"/>
</svg>
