<svg width="26" height="34" viewBox="0 0 26 34" fill="none" xmlns="http://www.w3.org/2000/svg">
<path d="M4.75987 1.02993L6.70487 0.444928C7.77035 0.123634 8.91634 0.200978 9.92899 0.662527C10.9416 1.12408 11.7518 1.9383 12.2082 2.95326L13.7115 6.2966C14.104 7.1696 14.2133 8.14356 14.0241 9.08182C13.8348 10.0201 13.3566 10.8756 12.6565 11.5283L10.1665 13.8499C10.0938 13.9178 10.0476 14.0094 10.0365 14.1083C9.9632 14.7699 10.4115 16.0583 11.4449 17.8499C12.1965 19.1516 12.8782 20.0666 13.4565 20.5783C13.8599 20.9366 14.0815 21.0133 14.1765 20.9866L17.5265 19.9616C18.4414 19.6818 19.4209 19.6952 20.3277 20.0001C21.2345 20.305 22.0232 20.8859 22.5832 21.6616L24.7182 24.6216C25.3675 25.5217 25.668 26.6269 25.5641 27.7319C25.4602 28.8369 24.9589 29.8666 24.1532 30.6299L22.6765 32.0299C21.8928 32.7721 20.9302 33.2987 19.8826 33.5583C18.8349 33.818 17.7378 33.8019 16.6982 33.5116C12.1082 32.2299 7.9932 28.3566 4.30654 21.9716C0.614869 15.5783 -0.680131 10.0716 0.513203 5.44993C0.781829 4.41049 1.31368 3.45776 2.05749 2.68359C2.80131 1.90942 3.732 1.3399 4.75987 1.02993ZM5.48154 3.42493C4.86499 3.61069 4.30667 3.95207 3.86034 4.41621C3.41401 4.88035 3.09471 5.45159 2.9332 6.07493C1.92987 9.9616 3.0782 14.8433 6.47154 20.7216C9.85987 26.5916 13.5082 30.0249 17.3715 31.1049C17.9951 31.2786 18.653 31.2879 19.2812 31.132C19.9094 30.976 20.4866 30.6601 20.9565 30.2149L22.4349 28.8149C22.8012 28.4679 23.0292 27.9997 23.0764 27.4973C23.1236 26.9949 22.9868 26.4925 22.6915 26.0833L20.5582 23.1249C20.3036 22.7719 19.9449 22.5075 19.5324 22.3688C19.1199 22.2301 18.6743 22.2241 18.2582 22.3516L14.8999 23.3799C12.9499 23.9599 11.1799 22.3916 9.27987 19.0999C7.99987 16.8833 7.4032 15.1666 7.55154 13.8316C7.62987 13.1383 7.95154 12.4983 8.46154 12.0216L10.9515 9.69993C11.2699 9.40329 11.4874 9.0144 11.5735 8.58785C11.6596 8.1613 11.6099 7.7185 11.4315 7.32159L9.9282 3.97826C9.72074 3.51727 9.35273 3.14745 8.89278 2.93771C8.43282 2.72797 7.91229 2.69262 7.4282 2.83826L5.48154 3.42493Z" fill="#9E981C"/>
</svg>
