<svg width="40" height="40" viewBox="0 0 40 40" fill="none" xmlns="http://www.w3.org/2000/svg">
<circle cx="20" cy="20" r="20" fill="white"/>
<path d="M15.92 29.8768C17.6091 29.8875 19.2836 29.5626 20.8462 28.9211C22.4088 28.2796 23.8285 27.3342 25.0229 26.1398C26.2174 24.9453 27.1627 23.5256 27.8043 21.963C28.4458 20.4004 28.7706 18.726 28.76 17.0368V16.4468C29.6356 15.8053 30.3935 15.017 31 14.1168C30.1755 14.4774 29.3031 14.7166 28.41 14.8268C29.3569 14.2626 30.0674 13.3745 30.41 12.3268C29.5275 12.8563 28.5598 13.2285 27.55 13.4268C26.8699 12.7022 25.97 12.2219 24.9895 12.0602C24.0089 11.8985 23.0024 12.0645 22.1257 12.5325C21.249 13.0004 20.551 13.7443 20.1396 14.6489C19.7282 15.5535 19.6264 16.5685 19.85 17.5368C18.056 17.4488 16.3007 16.9839 14.6984 16.1723C13.096 15.3608 11.6825 14.2209 10.55 12.8268C9.97892 13.818 9.80583 14.9892 10.0658 16.1032C10.3257 17.2172 10.9992 18.1908 11.95 18.8268C11.2486 18.7998 10.5635 18.6079 9.95 18.2668V18.3168C9.94377 19.3527 10.2927 20.3594 10.9387 21.1691C11.5847 21.9789 12.4887 22.5428 13.5 22.7668C12.8476 22.9423 12.1643 22.9696 11.5 22.8468C11.7928 23.7302 12.3517 24.5014 13.1 25.0546C13.8484 25.6078 14.7496 25.916 15.68 25.9368C14.0892 27.2174 12.1121 27.9222 10.07 27.9368C9.71195 27.9265 9.35475 27.8964 9 27.8468C11.067 29.1637 13.4692 29.858 15.92 29.8468" fill="#9E981C"/>
</svg>
