<svg width="34" height="34" viewBox="0 0 34 34" fill="none" xmlns="http://www.w3.org/2000/svg">
<path d="M28.3333 4.8501C26.8053 3.30664 24.9853 2.08288 22.9794 1.25018C20.9735 0.41749 18.8219 -0.00746686 16.65 9.92827e-05C7.55 9.92827e-05 0.133334 7.41676 0.133334 16.5168C0.133334 19.4334 0.9 22.2668 2.33333 24.7668L0 33.3334L8.75 31.0334C11.1667 32.3501 13.8833 33.0501 16.65 33.0501C25.75 33.0501 33.1667 25.6334 33.1667 16.5334C33.1667 12.1168 31.45 7.96676 28.3333 4.8501ZM16.65 30.2501C14.1833 30.2501 11.7667 29.5834 9.65 28.3334L9.15 28.0334L3.95 29.4001L5.33333 24.3334L5 23.8168C3.62958 21.6284 2.9019 19.0988 2.9 16.5168C2.9 8.9501 9.06667 2.78343 16.6333 2.78343C20.3 2.78343 23.75 4.21677 26.3333 6.81677C27.6125 8.09004 28.6262 9.60454 29.3157 11.2725C30.0051 12.9404 30.3567 14.7286 30.35 16.5334C30.3833 24.1001 24.2167 30.2501 16.65 30.2501ZM24.1833 19.9834C23.7667 19.7834 21.7333 18.7834 21.3667 18.6334C20.9833 18.5001 20.7167 18.4334 20.4333 18.8334C20.15 19.2501 19.3667 20.1834 19.1333 20.4501C18.9 20.7334 18.65 20.7668 18.2333 20.5501C17.8167 20.3501 16.4833 19.9001 14.9167 18.5001C13.6833 17.4001 12.8667 16.0501 12.6167 15.6334C12.3833 15.2168 12.5833 15.0001 12.8 14.7834C12.9833 14.6001 13.2167 14.3001 13.4167 14.0668C13.6167 13.8334 13.7 13.6501 13.8333 13.3834C13.9667 13.1001 13.9 12.8668 13.8 12.6668C13.7 12.4668 12.8667 10.4334 12.5333 9.6001C12.2 8.8001 11.85 8.9001 11.6 8.88343H10.8C10.5167 8.88343 10.0833 8.98343 9.7 9.4001C9.33333 9.81676 8.26667 10.8168 8.26667 12.8501C8.26667 14.8834 9.75 16.8501 9.95 17.1168C10.15 17.4001 12.8667 21.5668 17 23.3501C17.9833 23.7834 18.75 24.0334 19.35 24.2168C20.3333 24.5334 21.2333 24.4834 21.95 24.3834C22.75 24.2668 24.4 23.3834 24.7333 22.4168C25.0833 21.4501 25.0833 20.6334 24.9667 20.4501C24.85 20.2668 24.6 20.1834 24.1833 19.9834Z" fill="#9E981C"/>
</svg>
